<?xml version="1.0" encoding="UTF-8" standalone="no"?>
<svg
   xmlns:dc="http://purl.org/dc/elements/1.1/"
   xmlns:cc="http://creativecommons.org/ns#"
   xmlns:rdf="http://www.w3.org/1999/02/22-rdf-syntax-ns#"
   xmlns:svg="http://www.w3.org/2000/svg"
   xmlns="http://www.w3.org/2000/svg"
   xmlns:sodipodi="http://sodipodi.sourceforge.net/DTD/sodipodi-0.dtd"
   xmlns:inkscape="http://www.inkscape.org/namespaces/inkscape"
   sodipodi:docname="logo-large-alt.svg"
   inkscape:version="1.0 (4035a4fb49, 2020-05-01)"
   id="svg1182"
   version="1.1"
   viewBox="0 0 43.815891 23.23007"
   height="23.23007mm"
   width="43.815891mm">
  <defs
     id="defs1176" />
  <sodipodi:namedview
     inkscape:window-maximized="0"
     inkscape:window-y="36"
     inkscape:window-x="36"
     inkscape:window-height="1070"
     inkscape:window-width="1939"
     showgrid="false"
     inkscape:document-rotation="0"
     inkscape:current-layer="layer1"
     inkscape:document-units="mm"
     inkscape:cy="194.53169"
     inkscape:cx="131.71699"
     inkscape:zoom="0.35"
     inkscape:pageshadow="2"
     inkscape:pageopacity="0.0"
     borderopacity="1.0"
     bordercolor="#666666"
     pagecolor="#ffffff"
     id="base" />
  <metadata
     id="metadata1179">
    <rdf:RDF>
      <cc:Work
         rdf:about="">
        <dc:format>image/svg+xml</dc:format>
        <dc:type
           rdf:resource="http://purl.org/dc/dcmitype/StillImage" />
        <dc:title></dc:title>
      </cc:Work>
    </rdf:RDF>
  </metadata>
  <g
     transform="translate(-70.983213,-96.696824)"
     id="layer1"
     inkscape:groupmode="layer"
     inkscape:label="Layer 1">
    <g
       transform="translate(-74.297195,-131.11558)"
       id="g1154">
      <path
         style="fill:none;fill-rule:evenodd;stroke:#4a433d;stroke-width:0.201825;stroke-miterlimit:4;stroke-dasharray:none;stroke-dashoffset:0;stroke-opacity:1"
         d="m 175.82159,240.3505 a 10.840528,9.9288047 0 0 1 -10.8405,9.92879 10.840528,9.9288047 0 0 1 -10.84054,-9.92879 10.840528,9.9288047 0 0 1 10.84054,-9.92882 10.840528,9.9288047 0 0 1 10.8405,9.92882 z"
         id="path1799" />
      <path
         id="path1801"
         style="fill:none;fill-rule:evenodd;stroke:#4a433d;stroke-width:0.201825;stroke-miterlimit:4;stroke-dasharray:none;stroke-dashoffset:0;stroke-opacity:1"
         d="m 149.49733,247.78441 c 0.414,-0.52478 0.86691,-0.99202 1.35673,-1.31879 0.51959,-0.38779 1.27914,-0.65857 2.16858,-0.85139 0,0 0,0 0,0 1.998,-0.43456 4.611,-0.14543 7.52774,-0.0103 0,0 0,0 0,0 3.2304,0.2012 6.69863,0.11563 10.00044,-0.78352 4.16929,-1.19609 7.57109,-3.6374 10.24518,-6.50757 m -32.60731,7.93982 c 0.59824,-0.69064 1.28353,-1.30136 2.05342,-1.73361 0.77446,-0.45956 1.74984,-0.7615 2.81613,-0.94494 2.32835,-0.40396 5.06138,-0.10201 7.88784,0.027 0,0 0,0 0,0 3.13618,0.16393 6.37841,0.0722 9.32253,-0.80267 3.6479,-1.08275 6.67476,-3.31819 9.11815,-5.93462 m -32.60874,7.9544 c 0.80023,-0.89816 1.75196,-1.68826 2.85213,-2.24685 1.02932,-0.53133 2.22059,-0.86447 3.46364,-1.0385 2.65875,-0.37333 5.5118,-0.0586 8.24797,0.0653 0,0 0,0 0,0 3.04195,0.12693 6.05823,0.0285 8.64464,-0.82177 3.11993,-0.96563 5.76299,-2.97996 7.96397,-5.33049 m -32.59502,7.93867 c 0.99875,-1.10754 2.22089,-2.07577 3.66281,-2.76096 1.28423,-0.60312 2.69134,-0.96745 4.11122,-1.13208 2.98908,-0.34273 5.96219,-0.0154 8.60806,0.10381 0,0 0,0 0,0 2.94776,0.0897 5.73806,-0.0154 7.96671,-0.84091 2.63545,-0.85989 4.92014,-2.68546 6.88681,-4.80512" />
      <path
         style="fill:none;fill-rule:evenodd;stroke:#4a433d;stroke-width:0.202994;stroke-miterlimit:4;stroke-dasharray:0.202994, 0.811971;stroke-dashoffset:0;stroke-opacity:1"
         d="m 176.35387,240.37386 a 11.370594,10.567323 0 0 1 -11.37061,10.56732 11.370594,10.567323 0 0 1 -11.37058,-10.56732 11.370594,10.567323 0 0 1 11.37058,-10.56732 11.370594,10.567323 0 0 1 11.37061,10.56732"
         id="path1803" />
      <path
         id="path1805"
         d="m 175.82159,240.3505 a 10.840528,9.9288047 0 0 1 -10.8405,9.92879 10.840528,9.9288047 0 0 1 -10.84054,-9.92879 10.840528,9.9288047 0 0 1 10.84054,-9.92882 10.840528,9.9288047 0 0 1 10.8405,9.92882 z"
         style="fill:none;fill-rule:evenodd;stroke:#4a433d;stroke-width:0.201825;stroke-miterlimit:4;stroke-dasharray:none;stroke-dashoffset:0;stroke-opacity:1" />
      <path
         id="path1807"
         d="m 176.35387,240.37386 a 11.370594,10.567323 0 0 1 -11.37061,10.56732 11.370594,10.567323 0 0 1 -11.37058,-10.56732 11.370594,10.567323 0 0 1 11.37058,-10.56732 11.370594,10.567323 0 0 1 11.37061,10.56732"
         style="fill:none;fill-rule:evenodd;stroke:#4a433d;stroke-width:0.202994;stroke-miterlimit:4;stroke-dasharray:0.202994, 0.811971;stroke-dashoffset:0;stroke-opacity:1" />
      <text
         xml:space="preserve"
         style="font-style:normal;font-weight:normal;font-size:23.6225px;line-height:0;font-family:sans-serif;word-spacing:0px;fill:#7994af;fill-opacity:1;stroke:none;stroke-width:0.177168"
         x="156.66612"
         y="246.89938"
         id="text1813"><tspan
           sodipodi:role="line"
           id="tspan1809"
           x="156.66612"
           y="246.89938"
           style="font-style:normal;font-variant:normal;font-weight:normal;font-stretch:normal;font-size:23.6225px;line-height:0.55;font-family:Purisa;-inkscape-font-specification:'Purisa, Normal';font-variant-ligatures:normal;font-variant-caps:normal;font-variant-numeric:normal;font-variant-east-asian:normal;letter-spacing:-2.80988px;fill:#bbe1fa;fill-opacity:1;stroke-width:0.177168">MX</tspan><tspan
           sodipodi:role="line"
           x="156.66612"
           y="251.67233"
           style="font-style:normal;font-variant:normal;font-weight:normal;font-stretch:normal;font-size:23.6225px;line-height:0.55;font-family:'Tlwg Typewriter';-inkscape-font-specification:'Tlwg Typewriter';fill:#7994af;fill-opacity:1;stroke-width:0.177168"
           id="tspan1811" /></text>
      <text
         id="text1819"
         y="246.89938"
         x="157.72444"
         style="font-style:normal;font-weight:normal;font-size:23.6225px;line-height:0;font-family:sans-serif;word-spacing:0px;fill:#7994af;fill-opacity:1;stroke:none;stroke-width:0.177;stroke-miterlimit:4;stroke-dasharray:none"
         xml:space="preserve"><tspan
           dx="0"
           style="font-style:normal;font-variant:normal;font-weight:normal;font-stretch:normal;font-size:23.6225px;line-height:0.55;font-family:Purisa;-inkscape-font-specification:Purisa;font-variant-ligatures:normal;font-variant-caps:normal;font-variant-numeric:normal;font-variant-east-asian:normal;letter-spacing:-2.80988px;word-spacing:0px;fill:#1b262c;fill-opacity:1;stroke-width:0.177;stroke-miterlimit:4;stroke-dasharray:none"
           y="246.89938"
           x="157.72444"
           id="tspan1815"
           sodipodi:role="line">MX</tspan><tspan
           id="tspan1817"
           style="font-style:normal;font-variant:normal;font-weight:normal;font-stretch:normal;font-size:23.6225px;line-height:0.55;font-family:'Tlwg Typewriter';-inkscape-font-specification:'Tlwg Typewriter';fill:#7994af;fill-opacity:1;stroke-width:0.177;stroke-miterlimit:4;stroke-dasharray:none"
           y="251.67233"
           x="157.72444"
           sodipodi:role="line" /></text>
    </g>
  </g>
</svg>
