<?xml version="1.0" encoding="UTF-8"?>
<svg width="45.933mm" height="21.337mm" version="1.1" viewBox="0 0 45.933 21.337" xmlns="http://www.w3.org/2000/svg" xmlns:cc="http://creativecommons.org/ns#" xmlns:dc="http://purl.org/dc/elements/1.1/" xmlns:rdf="http://www.w3.org/1999/02/22-rdf-syntax-ns#">
 <metadata>
  <rdf:RDF>
   <cc:Work rdf:about="">
    <dc:format>image/svg+xml</dc:format>
    <dc:type rdf:resource="http://purl.org/dc/dcmitype/StillImage"/>
    <dc:title/>
   </cc:Work>
  </rdf:RDF>
 </metadata>
 <g transform="translate(-45.141 -32.838)">
  <g transform="translate(-96.372 -31.725)">
   <g fill="none" stroke="#4a433d">
    <path d="m172.05 75.208a10.841 9.9288 0 0 1-10.84 9.9288 10.841 9.9288 0 0 1-10.841-9.9288 10.841 9.9288 0 0 1 10.841-9.9288 10.841 9.9288 0 0 1 10.84 9.9288z" stroke-width=".20182"/>
    <path d="m145.73 82.642c0.414-0.52478 0.86691-0.99202 1.3567-1.3188 0.51959-0.38779 1.2791-0.65857 2.1686-0.85139 1.998-0.43456 4.611-0.14544 7.5277-0.01032 3.2304 0.20119 6.6986 0.11563 10-0.78353 4.1693-1.1961 7.5711-3.6374 10.245-6.5076m-32.607 7.9398c0.59824-0.69064 1.2835-1.3014 2.0534-1.7336 0.77446-0.45956 1.7498-0.76151 2.8161-0.94494 2.3284-0.40396 5.0614-0.10201 7.8878 0.02698 3.1362 0.16394 6.3784 0.0722 9.3225-0.80267 3.6479-1.0827 6.6748-3.3182 9.1182-5.9346m-32.609 7.9544c0.80023-0.89816 1.752-1.6883 2.8521-2.2468 1.0293-0.53133 2.2206-0.86447 3.4636-1.0385 2.6588-0.37333 5.5118-0.05859 8.248 0.06527 3.042 0.12693 6.0582 0.02853 8.6446-0.82176 3.1199-0.96563 5.763-2.98 7.964-5.3305m-32.595 7.9387c0.99875-1.1075 2.2209-2.0758 3.6628-2.761 1.2842-0.60312 2.6913-0.96745 4.1112-1.1321 2.9891-0.34272 5.9622-0.01542 8.6081 0.10381 2.9478 0.08968 5.7381-0.01542 7.9667-0.8409 2.6354-0.85989 4.9201-2.6855 6.8868-4.8051" stroke-width=".20182"/>
    <path d="m172.59 75.231a11.371 10.567 0 0 1-11.371 10.567 11.371 10.567 0 0 1-11.371-10.567 11.371 10.567 0 0 1 11.371-10.567 11.371 10.567 0 0 1 11.371 10.567" stroke-dasharray="0.202994, 0.811971" stroke-width=".20299"/>
    <path d="m172.05 75.208a10.841 9.9288 0 0 1-10.84 9.9288 10.841 9.9288 0 0 1-10.841-9.9288 10.841 9.9288 0 0 1 10.841-9.9288 10.841 9.9288 0 0 1 10.84 9.9288z" stroke-width=".20182"/>
    <path d="m172.59 75.231a11.371 10.567 0 0 1-11.371 10.567 11.371 10.567 0 0 1-11.371-10.567 11.371 10.567 0 0 1 11.371-10.567 11.371 10.567 0 0 1 11.371 10.567" stroke-dasharray="0.202994, 0.811971" stroke-width=".20299"/>
   </g>
   <text x="156.07413" y="83.344307" fill="#7994af" font-size="23.622px" stroke-width=".17717" word-spacing="0px" style="line-height:0" xml:space="preserve"><tspan x="156.07413" y="83.344307" font-family="Sawasdee" style="line-height:0.55">MX</tspan><tspan x="156.07413" y="89.298378" font-family="'Tlwg Typewriter'" style="line-height:0.55"/></text>
   <text x="156.60329" y="82.81514" font-size="23.622px" stroke-width=".17717" word-spacing="0px" style="line-height:0" xml:space="preserve"><tspan x="156.60329" y="82.81514" fill="#cb767e" font-family="Sawasdee" style="line-height:0.55">MX</tspan><tspan x="156.60329" y="88.769211" fill="#7994af" font-family="'Tlwg Typewriter'" style="line-height:0.55"/></text>
  </g>
 </g>
</svg>
